<svg xmlns="http://www.w3.org/2000/svg" width="32" height="32" fill="#c5a059" class="bi bi-shield-shaded" viewBox="0 0 16 16">
  <path d="M8 14.933a.615.615 0 0 0 .1-.025c.076-.023.174-.061.294-.118.24-.113.547-.29.874-.523.653-.467 1.39-1.147 1.872-1.902.469-.733.826-1.571.826-2.454V4.134c0-.183-.028-.36-.082-.527a.485.485 0 0 0-.063-.129.435.435 0 0 0-.118-.115C11.23 3.07 10.47 2.713 9.752 2.46c-.707-.25-1.344-.412-1.752-.466V1.093c.447.057 1.16.234 1.933.508.792.28 1.64.673 2.188 1.055a1.442 1.442 0 0 1 .51.59c.085.196.12.403.12.61v5.125c0 1.137-.425 2.222-1.026 3.161-.606.946-1.48 1.776-2.223 2.308-.372.266-.726.468-1.002.598-.276.13-.483.218-.612.262a.607.607 0 0 1-.168.037z"/>
  <path d="M8 1.093c-.447.057-1.16.234-1.933.508-.792.28-1.64.673-2.188 1.055a1.442 1.442 0 0 0-.51.59c-.085.196-.12.403-.12.61v5.125c0 1.137.425 2.222 1.026 3.161.606.946 1.48 1.776 2.223 2.308.372.266.726.468 1.002.598.276.13.483.218.612.262a.607.607 0 0 0 .168.037V1.093z"/>
</svg>
